<svg width="155" height="165" viewBox="0 0 155 165" fill="none" xmlns="http://www.w3.org/2000/svg">
<path d="M49.4554 12.2635L16.8199 31.9081C5.20762 38.898 1.51992 53.9128 1.1276 60.5465V102.916C0.267877 112.588 3.8975 120.604 7.6568 125.83C10.4658 129.735 14.5874 132.386 18.7345 134.823L57.2276 157.446C74.1753 168.117 91.2276 161.893 97.6353 157.446L138.828 133.516C151.381 125.356 153.474 111.808 152.951 106.054L154 64.9461C154 49.1879 149.356 41.6619 144.462 36.7838C140.948 33.2809 136.681 30.6406 132.408 28.1177L97.6353 7.58505C84.3833 -0.670274 72.7479 0.122139 65.0191 3.04017C59.3745 5.17132 54.6247 9.15184 49.4554 12.2635Z" fill="white" stroke="url(#paint0_linear_2026_694)" stroke-opacity="0.58" stroke-width="1.74971"/>
<defs>
<linearGradient id="paint0_linear_2026_694" x1="24.1513" y1="33.9522" x2="120.783" y2="148.702" gradientUnits="userSpaceOnUse">
<stop stop-color="#41469B"/>
<stop offset="0.265625" stop-color="#69478C"/>
<stop offset="0.520833" stop-color="#8A4880"/>
<stop offset="0.765625" stop-color="#CB4967"/>
<stop offset="1" stop-color="#FF4A54"/>
</linearGradient>
</defs>
</svg>
